<mxfile host="Electron" modified="2024-03-14T23:37:23.453Z" agent="Mozilla/5.0 (X11; Linux x86_64) AppleWebKit/537.36 (KHTML, like Gecko) draw.io/21.4.0 Chrome/112.0.5615.204 Electron/24.5.1 Safari/537.36" etag="iOL4B3E8XGQFjA4hWW-S" version="21.4.0" type="device">
  <diagram name="Page-1" id="5wpW_zQLWzGnFDzeWxCT">
    <mxGraphModel dx="635" dy="1171" grid="1" gridSize="10" guides="1" tooltips="1" connect="1" arrows="1" fold="1" page="0" pageScale="1" pageWidth="1200" pageHeight="1920" math="0" shadow="0">
      <root>
        <mxCell id="0" />
        <mxCell id="1" parent="0" />
        <mxCell id="3Fx_Z7joVPhrfl3dFW5y-13" value="" style="rounded=1;whiteSpace=wrap;html=1;fontSize=16;dashed=1;dashPattern=1 4;" parent="1" vertex="1">
          <mxGeometry x="20" y="-290" width="650" height="700" as="geometry" />
        </mxCell>
        <mxCell id="3Fx_Z7joVPhrfl3dFW5y-8" style="edgeStyle=none;curved=1;rounded=0;orthogonalLoop=1;jettySize=auto;html=1;exitX=1;exitY=0.5;exitDx=0;exitDy=0;entryX=0;entryY=0.5;entryDx=0;entryDy=0;fontSize=12;startSize=8;endSize=8;" parent="1" source="3Fx_Z7joVPhrfl3dFW5y-1" target="3Fx_Z7joVPhrfl3dFW5y-3" edge="1">
          <mxGeometry relative="1" as="geometry">
            <Array as="points">
              <mxPoint x="360" y="-200" />
            </Array>
          </mxGeometry>
        </mxCell>
        <mxCell id="3Fx_Z7joVPhrfl3dFW5y-9" style="edgeStyle=none;curved=1;rounded=0;orthogonalLoop=1;jettySize=auto;html=1;exitX=1;exitY=0.5;exitDx=0;exitDy=0;entryX=0;entryY=0.5;entryDx=0;entryDy=0;fontSize=12;startSize=8;endSize=8;" parent="1" source="3Fx_Z7joVPhrfl3dFW5y-1" target="3Fx_Z7joVPhrfl3dFW5y-4" edge="1">
          <mxGeometry relative="1" as="geometry">
            <Array as="points">
              <mxPoint x="320" y="-140" />
            </Array>
          </mxGeometry>
        </mxCell>
        <mxCell id="3Fx_Z7joVPhrfl3dFW5y-1" value="&lt;pre data-ved=&quot;2ahUKEwiS_J-JmLyEAxVj0QIHHWy-ADkQ3ewLegQIBhAT&quot; style=&quot;&quot; id=&quot;tw-target-text&quot; data-placeholder=&quot;Übersetzung&quot; class=&quot;tw-data-text tw-text-large tw-ta&quot;&gt;Air&lt;br&gt;Service&lt;/pre&gt;" style="rounded=0;whiteSpace=wrap;html=1;fontSize=16;align=center;" parent="1" vertex="1">
          <mxGeometry x="110" y="-210" width="170" height="60" as="geometry" />
        </mxCell>
        <mxCell id="3Fx_Z7joVPhrfl3dFW5y-10" style="edgeStyle=none;curved=1;rounded=0;orthogonalLoop=1;jettySize=auto;html=1;exitX=1;exitY=0.5;exitDx=0;exitDy=0;entryX=0;entryY=0.5;entryDx=0;entryDy=0;fontSize=12;startSize=8;endSize=8;" parent="1" source="3Fx_Z7joVPhrfl3dFW5y-2" target="3Fx_Z7joVPhrfl3dFW5y-5" edge="1">
          <mxGeometry relative="1" as="geometry">
            <Array as="points">
              <mxPoint x="320" y="-20" />
            </Array>
          </mxGeometry>
        </mxCell>
        <mxCell id="3Fx_Z7joVPhrfl3dFW5y-11" style="edgeStyle=none;curved=1;rounded=0;orthogonalLoop=1;jettySize=auto;html=1;exitX=1;exitY=0.5;exitDx=0;exitDy=0;entryX=0;entryY=0.5;entryDx=0;entryDy=0;fontSize=12;startSize=8;endSize=8;" parent="1" source="3Fx_Z7joVPhrfl3dFW5y-2" target="3Fx_Z7joVPhrfl3dFW5y-6" edge="1">
          <mxGeometry relative="1" as="geometry">
            <Array as="points">
              <mxPoint x="350" y="30" />
            </Array>
          </mxGeometry>
        </mxCell>
        <mxCell id="3Fx_Z7joVPhrfl3dFW5y-12" style="edgeStyle=none;curved=1;rounded=0;orthogonalLoop=1;jettySize=auto;html=1;exitX=1;exitY=0.5;exitDx=0;exitDy=0;entryX=0;entryY=0.5;entryDx=0;entryDy=0;fontSize=12;startSize=8;endSize=8;" parent="1" source="3Fx_Z7joVPhrfl3dFW5y-2" target="3Fx_Z7joVPhrfl3dFW5y-7" edge="1">
          <mxGeometry relative="1" as="geometry">
            <Array as="points">
              <mxPoint x="340" y="90" />
            </Array>
          </mxGeometry>
        </mxCell>
        <mxCell id="3Fx_Z7joVPhrfl3dFW5y-2" value="&lt;pre data-ved=&quot;2ahUKEwiS_J-JmLyEAxVj0QIHHWy-ADkQ3ewLegQIBhAT&quot; style=&quot;&quot; id=&quot;tw-target-text&quot; data-placeholder=&quot;Übersetzung&quot; class=&quot;tw-data-text tw-text-large tw-ta&quot;&gt;WeatherStation&lt;br&gt;Service&lt;/pre&gt;" style="rounded=0;whiteSpace=wrap;html=1;fontSize=16;align=center;" parent="1" vertex="1">
          <mxGeometry x="110" y="10" width="170" height="60" as="geometry" />
        </mxCell>
        <mxCell id="3Fx_Z7joVPhrfl3dFW5y-3" value="temperature&lt;br&gt;Characteristic" style="rounded=1;whiteSpace=wrap;html=1;fontSize=16;fillColor=#d5e8d4;strokeColor=#82b366;" parent="1" vertex="1">
          <mxGeometry x="380" y="-240" width="160" height="40" as="geometry" />
        </mxCell>
        <mxCell id="3Fx_Z7joVPhrfl3dFW5y-4" value="humidity&lt;br&gt;Characteristic" style="rounded=1;whiteSpace=wrap;html=1;fontSize=16;fillColor=#d5e8d4;strokeColor=#82b366;" parent="1" vertex="1">
          <mxGeometry x="380" y="-150" width="160" height="40" as="geometry" />
        </mxCell>
        <mxCell id="3Fx_Z7joVPhrfl3dFW5y-5" value="wind_speed&lt;br&gt;Characteristic" style="rounded=1;whiteSpace=wrap;html=1;fontSize=16;fillColor=#e1d5e7;strokeColor=#9673a6;" parent="1" vertex="1">
          <mxGeometry x="380" y="-60" width="160" height="40" as="geometry" />
        </mxCell>
        <mxCell id="3Fx_Z7joVPhrfl3dFW5y-6" value="wind_direction&lt;br&gt;Characteristic" style="rounded=1;whiteSpace=wrap;html=1;fontSize=16;fillColor=#d5e8d4;strokeColor=#82b366;" parent="1" vertex="1">
          <mxGeometry x="380" y="10" width="160" height="40" as="geometry" />
        </mxCell>
        <mxCell id="3Fx_Z7joVPhrfl3dFW5y-7" value="rainfall&lt;br&gt;Characteristic" style="rounded=1;whiteSpace=wrap;html=1;fontSize=16;fillColor=#d5e8d4;strokeColor=#82b366;" parent="1" vertex="1">
          <mxGeometry x="380" y="90" width="160" height="40" as="geometry" />
        </mxCell>
        <mxCell id="3Fx_Z7joVPhrfl3dFW5y-14" value="SARA BLE Profiles" style="text;html=1;strokeColor=none;fillColor=none;align=center;verticalAlign=middle;whiteSpace=wrap;rounded=0;fontSize=16;" parent="1" vertex="1">
          <mxGeometry x="70" y="-270" width="100" height="30" as="geometry" />
        </mxCell>
        <mxCell id="3Fx_Z7joVPhrfl3dFW5y-15" value="" style="rounded=0;whiteSpace=wrap;html=1;fontSize=16;fillColor=#e1d5e7;strokeColor=#9673a6;" parent="1" vertex="1">
          <mxGeometry x="80" y="365" width="20" height="20" as="geometry" />
        </mxCell>
        <mxCell id="3Fx_Z7joVPhrfl3dFW5y-16" value="" style="rounded=0;whiteSpace=wrap;html=1;fontSize=16;fillColor=#d5e8d4;strokeColor=#82b366;" parent="1" vertex="1">
          <mxGeometry x="80" y="340" width="20" height="20" as="geometry" />
        </mxCell>
        <mxCell id="3Fx_Z7joVPhrfl3dFW5y-17" value="Notify" style="text;html=1;strokeColor=none;fillColor=none;align=center;verticalAlign=middle;whiteSpace=wrap;rounded=0;fontSize=16;" parent="1" vertex="1">
          <mxGeometry x="100" y="360" width="60" height="30" as="geometry" />
        </mxCell>
        <mxCell id="3Fx_Z7joVPhrfl3dFW5y-18" value="Read" style="text;html=1;strokeColor=none;fillColor=none;align=center;verticalAlign=middle;whiteSpace=wrap;rounded=0;fontSize=16;" parent="1" vertex="1">
          <mxGeometry x="100" y="335" width="60" height="30" as="geometry" />
        </mxCell>
        <mxCell id="jMvuS5QVNhFPYdE-QJXF-8" value="0x1102" style="text;html=1;strokeColor=none;fillColor=none;align=left;verticalAlign=middle;whiteSpace=wrap;rounded=0;fontSize=16;fontStyle=1" vertex="1" parent="1">
          <mxGeometry x="110" y="70" width="60" height="30" as="geometry" />
        </mxCell>
        <mxCell id="jMvuS5QVNhFPYdE-QJXF-9" value="0x1101" style="text;html=1;strokeColor=none;fillColor=none;align=left;verticalAlign=middle;whiteSpace=wrap;rounded=0;fontSize=16;fontStyle=1" vertex="1" parent="1">
          <mxGeometry x="110" y="-150" width="60" height="30" as="geometry" />
        </mxCell>
        <mxCell id="jMvuS5QVNhFPYdE-QJXF-15" value="0x2203" style="text;html=1;strokeColor=none;fillColor=none;align=left;verticalAlign=middle;whiteSpace=wrap;rounded=0;fontSize=16;fontStyle=1" vertex="1" parent="1">
          <mxGeometry x="380" y="130" width="60" height="30" as="geometry" />
        </mxCell>
        <mxCell id="jMvuS5QVNhFPYdE-QJXF-16" value="0x2201" style="text;html=1;strokeColor=none;fillColor=none;align=left;verticalAlign=middle;whiteSpace=wrap;rounded=0;fontSize=16;fontStyle=1" vertex="1" parent="1">
          <mxGeometry x="380" y="50" width="60" height="30" as="geometry" />
        </mxCell>
        <mxCell id="jMvuS5QVNhFPYdE-QJXF-17" value="0x2202" style="text;html=1;strokeColor=none;fillColor=none;align=left;verticalAlign=middle;whiteSpace=wrap;rounded=0;fontSize=16;fontStyle=1" vertex="1" parent="1">
          <mxGeometry x="380" y="-20" width="60" height="30" as="geometry" />
        </mxCell>
        <mxCell id="jMvuS5QVNhFPYdE-QJXF-18" value="0x2102" style="text;html=1;strokeColor=none;fillColor=none;align=left;verticalAlign=middle;whiteSpace=wrap;rounded=0;fontSize=16;fontStyle=1" vertex="1" parent="1">
          <mxGeometry x="380" y="-110" width="60" height="30" as="geometry" />
        </mxCell>
        <mxCell id="jMvuS5QVNhFPYdE-QJXF-19" value="0x2101" style="text;html=1;strokeColor=none;fillColor=none;align=left;verticalAlign=middle;whiteSpace=wrap;rounded=0;fontSize=16;fontStyle=1" vertex="1" parent="1">
          <mxGeometry x="380" y="-200" width="60" height="30" as="geometry" />
        </mxCell>
        <mxCell id="jMvuS5QVNhFPYdE-QJXF-11" value="0x2301" style="text;html=1;strokeColor=none;fillColor=none;align=left;verticalAlign=middle;whiteSpace=wrap;rounded=0;fontSize=16;fontStyle=1" vertex="1" parent="1">
          <mxGeometry x="380" y="310" width="60" height="30" as="geometry" />
        </mxCell>
        <mxCell id="jMvuS5QVNhFPYdE-QJXF-12" value="0x2302" style="text;html=1;strokeColor=none;fillColor=none;align=left;verticalAlign=middle;whiteSpace=wrap;rounded=0;fontSize=16;fontStyle=1" vertex="1" parent="1">
          <mxGeometry x="380" y="220" width="60" height="30" as="geometry" />
        </mxCell>
        <mxCell id="jMvuS5QVNhFPYdE-QJXF-13" value="" style="group" vertex="1" connectable="0" parent="1">
          <mxGeometry x="100" y="180" width="440" height="130" as="geometry" />
        </mxCell>
        <mxCell id="jMvuS5QVNhFPYdE-QJXF-3" value="&lt;pre data-ved=&quot;2ahUKEwiS_J-JmLyEAxVj0QIHHWy-ADkQ3ewLegQIBhAT&quot; style=&quot;&quot; id=&quot;tw-target-text&quot; data-placeholder=&quot;Übersetzung&quot; class=&quot;tw-data-text tw-text-large tw-ta&quot;&gt;WeatherStation&lt;br&gt;Service&lt;/pre&gt;" style="rounded=0;whiteSpace=wrap;html=1;fontSize=16;align=center;" vertex="1" parent="jMvuS5QVNhFPYdE-QJXF-13">
          <mxGeometry y="20" width="170" height="60" as="geometry" />
        </mxCell>
        <mxCell id="jMvuS5QVNhFPYdE-QJXF-4" value="batteryRawADC&lt;br&gt;Characteristic" style="rounded=1;whiteSpace=wrap;html=1;fontSize=16;fillColor=#d5e8d4;strokeColor=#82b366;" vertex="1" parent="jMvuS5QVNhFPYdE-QJXF-13">
          <mxGeometry x="280" width="160" height="40" as="geometry" />
        </mxCell>
        <mxCell id="jMvuS5QVNhFPYdE-QJXF-5" style="edgeStyle=none;curved=1;rounded=0;orthogonalLoop=1;jettySize=auto;html=1;exitX=1;exitY=0.5;exitDx=0;exitDy=0;entryX=0;entryY=0.5;entryDx=0;entryDy=0;fontSize=12;startSize=8;endSize=8;" edge="1" parent="jMvuS5QVNhFPYdE-QJXF-13" source="jMvuS5QVNhFPYdE-QJXF-3" target="jMvuS5QVNhFPYdE-QJXF-4">
          <mxGeometry relative="1" as="geometry">
            <Array as="points">
              <mxPoint x="210" y="20" />
            </Array>
          </mxGeometry>
        </mxCell>
        <mxCell id="jMvuS5QVNhFPYdE-QJXF-6" value="batteryLevel&lt;br&gt;Characteristic" style="rounded=1;whiteSpace=wrap;html=1;fontSize=16;fillColor=#d5e8d4;strokeColor=#82b366;" vertex="1" parent="jMvuS5QVNhFPYdE-QJXF-13">
          <mxGeometry x="280" y="90" width="160" height="40" as="geometry" />
        </mxCell>
        <mxCell id="jMvuS5QVNhFPYdE-QJXF-7" style="edgeStyle=none;curved=1;rounded=0;orthogonalLoop=1;jettySize=auto;html=1;exitX=1;exitY=0.5;exitDx=0;exitDy=0;entryX=0;entryY=0.5;entryDx=0;entryDy=0;fontSize=12;startSize=8;endSize=8;" edge="1" parent="jMvuS5QVNhFPYdE-QJXF-13" source="jMvuS5QVNhFPYdE-QJXF-3" target="jMvuS5QVNhFPYdE-QJXF-6">
          <mxGeometry relative="1" as="geometry">
            <Array as="points">
              <mxPoint x="220" y="90" />
            </Array>
          </mxGeometry>
        </mxCell>
        <mxCell id="jMvuS5QVNhFPYdE-QJXF-10" value="0x1103" style="text;html=1;strokeColor=none;fillColor=none;align=left;verticalAlign=middle;whiteSpace=wrap;rounded=0;fontSize=16;fontStyle=1" vertex="1" parent="jMvuS5QVNhFPYdE-QJXF-13">
          <mxGeometry y="80" width="60" height="30" as="geometry" />
        </mxCell>
      </root>
    </mxGraphModel>
  </diagram>
</mxfile>
